<svg xmlns="http://www.w3.org/2000/svg" style="display: none;">
    <symbol id="alarm-clock" viewBox="0 0 58.153 58.153">
      <path d="M40.076 29.153h-7.142c-.364-1.4-1.46-2.494-2.858-2.858V16.153c0-.553-.448-1-1-1s-1 .447-1 1v10.142c-1.72.447-3 2-3 3.858 0 2.206 1.794 4 4 4 1.858 0 3.41-1.28 3.858-3h7.142c.552 0 1-.447 1-1s-.447-1-1-1zm-11 3c-1.103 0-2-.897-2-2s.897-2 2-2 2 .897 2 2-.897 2-2 2z"/><path d="M50.188 9.764l4.096 4.096c.188.188.442.293.707.293s.52-.105.708-.293c3.167-3.166 3.167-8.32 0-11.485s-8.32-3.166-11.485 0c-.188.188-.293.44-.293.707s.105.52.293.707l4.56 4.56-1.698 1.7c-4.78-4.285-11.09-6.897-17.998-6.897S15.86 5.765 11.08 10.05l-1.7-1.7 4.56-4.56c.188-.19.293-.442.293-.708s-.105-.52-.293-.707C10.774-.79 5.622-.79 2.455 2.375s-3.167 8.32 0 11.485c.188.188.442.293.707.293s.52-.105.707-.293l4.095-4.096L9.64 11.44c-4.678 4.857-7.564 11.453-7.564 18.713 0 9.898 5.357 18.564 13.32 23.265l-3.027 3.028c-.392.39-.392 1.023 0 1.414.194.195.45.293.706.293s.512-.098.707-.293l3.45-3.45c3.578 1.754 7.597 2.743 11.843 2.743s8.265-.99 11.843-2.743l3.45 3.45c.194.195.45.293.706.293s.512-.098.707-.293c.39-.39.39-1.023 0-1.414l-3.028-3.028c7.964-4.7 13.32-13.367 13.32-23.265 0-7.26-2.885-13.856-7.564-18.713l1.678-1.676zm4.095-5.975c2.146 2.145 2.362 5.5.65 7.892L46.39 3.14c2.39-1.713 5.746-1.498 7.893.65zM3.22 11.68c-1.713-2.39-1.497-5.745.65-7.89s5.5-2.362 7.89-.65l-8.54 8.54zm25.856 43.473c-13.785 0-25-11.215-25-25s11.215-25 25-25 25 11.215 25 25-11.214 25-25 25z"/><path d="M29.076 10.032c.552 0 1-.447 1-1v-1c0-.553-.448-1-1-1s-1 .447-1 1v1c0 .552.448 1 1 1zM29.076 50.032c-.552 0-1 .447-1 1v1c0 .553.448 1 1 1s1-.447 1-1v-1c0-.553-.447-1-1-1zM50.076 31.032h1c.552 0 1-.447 1-1s-.448-1-1-1h-1c-.552 0-1 .447-1 1s.448 1 1 1zM8.076 29.032h-1c-.552 0-1 .447-1 1s.448 1 1 1h1c.552 0 1-.447 1-1s-.447-1-1-1zM43.926 13.768l-.707.707c-.392.39-.392 1.023 0 1.414.194.194.45.292.706.292s.512-.098.707-.293l.707-.708c.39-.39.39-1.023 0-1.414s-1.024-.39-1.414 0zM13.52 44.174l-.707.707c-.39.392-.39 1.024 0 1.415.195.195.45.293.707.293s.512-.098.707-.293l.707-.707c.39-.39.39-1.023 0-1.414s-1.023-.39-1.414 0zM44.633 44.174c-.39-.39-1.023-.39-1.414 0s-.392 1.023 0 1.414l.706.707c.195.195.45.293.707.293s.512-.098.707-.293c.39-.39.39-1.023 0-1.414l-.707-.706zM14.227 13.768c-.39-.39-1.023-.39-1.414 0s-.39 1.023 0 1.414l.707.707c.195.194.45.292.707.292s.512-.098.707-.293c.39-.392.39-1.024 0-1.415l-.707-.707z"/>
    </symbol>
    <symbol id="buildings" viewBox="0 0 290.625 290.625">
      <path d="M276.563 281.25V60.938h-16.645l-37.5-42.188h-25.542V0H14.062v281.25H4.687v9.375h281.25v-9.375h-9.374zm-58.35-253.125l29.16 32.813h-50.498V46.875H187.5v14.063h-50.498l29.17-32.813h52.04zm-82.275 14.063v-9.375h13.52l-8.335 9.375h-5.185zM107.812 281.25H56.25v-70.313h51.563v70.313zm0-126.562h-18.75v-9.375h18.75v9.375zm0-37.5h-18.75v-9.375h18.75v9.375zm0-37.5h-18.75v-9.375h18.75v9.375zm-28.125-18.75v28.125h28.125v9.375H79.687v28.125h28.125v9.375H79.687v28.125h28.125v18.75h-75v9.375h75v9.375h-75v9.375h14.063v70.313H23.437V9.376H187.5v9.375h-25.542l-4.167 4.688h-31.227v28.125h6.23l-8.334 9.375H79.686zm75 220.312h-18.75v-28.125c0-5.17 4.206-9.375 9.376-9.375 5.17 0 9.375 4.205 9.375 9.375v28.125zm46.876 0h-18.75v-28.125c0-5.17 4.205-9.375 9.375-9.375s9.375 4.205 9.375 9.375v28.125zm46.875 0h-18.75v-28.125c0-5.17 4.205-9.375 9.375-9.375s9.375 4.205 9.375 9.375v28.125zm18.75 0h-9.375v-28.125c0-10.34-8.41-18.75-18.75-18.75s-18.75 8.41-18.75 18.75v28.125h-9.375v-28.125c0-10.34-8.41-18.75-18.75-18.75s-18.75 8.41-18.75 18.75v28.125h-9.375v-28.125c0-10.34-8.41-18.75-18.75-18.75s-18.75 8.41-18.75 18.75v28.125h-9.375V70.313h150V281.25z"/><path d="M164.063 192.188h-37.5v28.125h37.5v-28.125zm-9.375 18.75h-18.75v-9.375h18.75v9.375zM210.938 192.188h-37.5v28.125h37.5v-28.125zm-9.375 18.75h-18.75v-9.375h18.75v9.375zM257.813 192.188h-37.5v28.125h37.5v-28.125zm-9.375 18.75h-18.75v-9.375h18.75v9.375zM164.063 154.688h-37.5v28.125h37.5v-28.125zm-9.375 18.75h-18.75v-9.375h18.75v9.375zM210.938 154.688h-37.5v28.125h37.5v-28.125zm-9.375 18.75h-18.75v-9.375h18.75v9.375zM257.813 154.688h-37.5v28.125h37.5v-28.125zm-9.375 18.75h-18.75v-9.375h18.75v9.375zM164.063 117.188h-37.5v28.125h37.5v-28.125zm-9.375 18.75h-18.75v-9.375h18.75v9.375zM210.938 117.188h-37.5v28.125h37.5v-28.125zm-9.375 18.75h-18.75v-9.375h18.75v9.375zM257.813 117.188h-37.5v28.125h37.5v-28.125zm-9.375 18.75h-18.75v-9.375h18.75v9.375zM164.063 79.688h-37.5v28.125h37.5V79.688zm-9.375 18.75h-18.75v-9.375h18.75v9.375zM210.938 79.688h-37.5v28.125h37.5V79.688zm-9.375 18.75h-18.75v-9.375h18.75v9.375zM257.813 79.688h-37.5v28.125h37.5V79.688zm-9.375 18.75h-18.75v-9.375h18.75v9.375zM32.812 164.063h37.5v-28.125h-37.5v28.125zm9.375-18.75h18.75v9.375h-18.75v-9.375zM32.812 126.563h37.5V98.438h-37.5v28.125zm9.375-18.75h18.75v9.375h-18.75v-9.375zM32.812 89.063h37.5V60.938h-37.5v28.125zm9.375-18.75h18.75v9.375h-18.75v-9.375zM32.812 51.563h37.5V23.438h-37.5v28.125zm9.375-18.75h18.75v9.375h-18.75v-9.375zM79.687 51.563h37.5V23.438h-37.5v28.125zm9.375-18.75h18.75v9.375h-18.75v-9.375z"/>
    </symbol>
    <symbol id="chat" viewBox="0 0 511.999 511.999">
      <path d="M372.29 50.758H28.83C12.934 50.758 0 63.69 0 79.588v206.056c0 15.897 12.933 28.83 28.83 28.83h22.272v76.71c0 4.885 2.942 9.29 7.456 11.16 1.494.62 3.064.92 4.62.92 3.144 0 6.232-1.228 8.543-3.538l85.252-85.25h17.104c6.67 0 12.078-5.407 12.078-12.078 0-6.672-5.41-12.08-12.078-12.08 0 0-22.69.017-22.927.04-2.813.192-5.573 1.35-7.723 3.5l-68.17 68.168s-.02-60.392-.06-60.705c-.544-6.165-5.716-11-12.023-11H28.83c-2.577 0-4.673-2.098-4.673-4.675V79.588c0-2.578 2.097-4.674 4.674-4.674h343.46c2.578 0 4.674 2.097 4.674 4.674v79.055c0 6.67 5.41 12.078 12.078 12.078s12.078-5.406 12.078-12.077V79.588c0-15.897-12.933-28.83-28.83-28.83z"/><path d="M483.17 198.492H242.753c-15.897 0-28.83 12.933-28.83 28.83v140.57c0 15.898 12.932 28.832 28.83 28.832h150.514l60.98 60.98c2.31 2.31 5.4 3.538 8.543 3.538 1.557 0 3.127-.3 4.62-.92 4.513-1.87 7.457-6.273 7.457-11.16v-52.44h8.3c15.898 0 28.832-12.932 28.832-28.83v-140.57c0-15.897-12.933-28.83-28.83-28.83zm4.674 169.4c0 2.578-2.097 4.675-4.674 4.675h-20.376c-6.356 0-11.554 4.912-12.03 11.147-.032.264-.052 36.29-.052 36.29l-43.854-43.855c-.046-.047-.094-.09-.14-.136-.172-.168-.335-.314-.49-.445-2.125-1.865-4.902-3.004-7.95-3.004H242.754c-2.578 0-4.674-2.097-4.674-4.674v-140.57c0-2.578 2.097-4.674 4.674-4.674H483.17c2.577 0 4.674 2.097 4.674 4.674v140.57z"/><path d="M362.964 285.53c-6.667 0-12.078 5.41-12.078 12.078 0 6.667 5.41 12.078 12.078 12.078 6.668 0 12.078-5.41 12.078-12.078 0-6.667-5.41-12.078-12.078-12.078zM310.472 130.61H90.65c-6.67 0-12.078 5.408-12.078 12.08s5.41 12.077 12.078 12.077h219.822c6.67 0 12.078-5.407 12.078-12.078s-5.408-12.08-12.078-12.08zM174.075 210.465H90.65c-6.67 0-12.078 5.407-12.078 12.078 0 6.67 5.41 12.078 12.078 12.078h83.425c6.67 0 12.078-5.406 12.078-12.077s-5.408-12.078-12.078-12.078zM306.837 285.53c-6.666 0-12.078 5.41-12.078 12.078 0 6.667 5.41 12.078 12.077 12.078 6.668 0 12.078-5.41 12.078-12.078 0-6.667-5.41-12.078-12.078-12.078zM419.08 285.53c-6.668 0-12.08 5.41-12.08 12.078 0 6.667 5.412 12.078 12.08 12.078 6.667 0 12.077-5.41 12.077-12.078 0-6.667-5.41-12.078-12.078-12.078z"/>
    </symbol>
    <symbol id="cross" viewBox="0 0 94.926 94.926">
      <path d="M55.93 47.463L94.307 9.09c.826-.827.826-2.167 0-2.994L88.833.62C88.436.224 87.896 0 87.335 0c-.562 0-1.1.224-1.498.62L47.463 38.994 9.09.62c-.796-.795-2.203-.794-2.996 0L.622 6.096c-.827.827-.827 2.167 0 2.994l38.374 38.373L.622 85.836c-.827.827-.827 2.167 0 2.994l5.473 5.476c.397.396.936.62 1.498.62s1.1-.224 1.497-.62l38.374-38.374 38.374 38.374c.397.396.937.62 1.498.62s1.1-.224 1.498-.62l5.473-5.476c.826-.827.826-2.167 0-2.994L55.93 47.463z"/>
    </symbol>
    <symbol id="house-plans" viewBox="0 0 174 174">
      <path d="M171.5 163.64H2.5c-1.38 0-2.5-1.118-2.5-2.5V12.86c0-1.382 1.12-2.5 2.5-2.5h151.672c1.38 0 2.5 1.118 2.5 2.5v73.926H171.5c1.38 0 2.5 1.12 2.5 2.5v71.855c0 1.382-1.12 2.5-2.5 2.5zm-126-5H169V91.787h-51.7c-1.382 0-2.5-1.12-2.5-2.5v-4.813h-6.173c-1.38 0-2.5-1.12-2.5-2.5s1.12-2.5 2.5-2.5h6.172V63.306c0-1.38 1.118-2.5 2.5-2.5s2.5 1.12 2.5 2.5v23.48h14.528V15.36h-14.53v18.28c0 1.38-1.118 2.5-2.5 2.5s-2.5-1.12-2.5-2.5V25.97H75.5c-1.38 0-2.5-1.12-2.5-2.5V15.36h-9.127V26.97c0 1.38-1.12 2.5-2.5 2.5s-2.5-1.12-2.5-2.5V15.36h-2.706v6.446c0 1.38-1.12 2.5-2.5 2.5h-.78c.448 1.02.697 2.15.697 3.333v6.5c0 4.594-3.738 8.332-8.333 8.332-4.594 0-8.332-3.738-8.332-8.333v-6.5c0-1.186.25-2.313.696-3.334h-.78c-1.38 0-2.5-1.12-2.5-2.5V15.36H25.25V48.47c0 1.38-1.12 2.5-2.5 2.5H19.5V65.01h39.373V53.472c0-1.38 1.12-2.5 2.5-2.5s2.5 1.12 2.5 2.5v26h6.172c1.38 0 2.5 1.12 2.5 2.5s-1.12 2.5-2.5 2.5h-6.172v12.25c0 1.38-1.12 2.5-2.5 2.5s-2.5-1.12-2.5-2.5V70.01H23.167v71.796H43c1.38 0 2.5 1.12 2.5 2.5v14.335zm-40.5 0h35.5v-11.834H20.667c-1.38 0-2.5-1.12-2.5-2.5v-43.5H5v57.835zm0-62.834h13.167V70.01H5v25.796zm143-9.02h3.672V15.36H148v71.426zm-8.672 0H143V15.36h-3.672v71.426zM5 64.14h9.5V50.97H5V64.14zM17 45.97h3.25V15.36H5V45.97h12zm28.25-21.666c-1.838 0-3.333 1.496-3.333 3.333v6.5c0 1.837 1.495 3.332 3.333 3.332s3.333-1.495 3.333-3.333v-6.5c0-1.838-1.495-3.334-3.333-3.334zM78 20.972h36.8V15.36H78v5.612zm-32.75-1.666h5.917V15.36H39.333v3.946h5.917zm54.706 131.916H79.91c-1.38 0-2.5-1.12-2.5-2.5V102.91c0-1.38 1.12-2.5 2.5-2.5h20.046c1.38 0 2.5 1.12 2.5 2.5v45.813c0 1.38-1.12 2.5-2.5 2.5zm-17.545-5h15.046v-2.5h-8.873c-1.38 0-2.5-1.12-2.5-2.5V110.41c0-1.38 1.12-2.5 2.5-2.5h8.873v-2.5H82.41v40.812zm8.673-7.5h6.373V112.91h-6.373v25.812zm63.09 11c-1.382 0-2.5-1.12-2.5-2.5v-43c0-1.38 1.118-2.5 2.5-2.5s2.5 1.12 2.5 2.5v7.756c1.3.088 2.327 1.17 2.327 2.494v22.5c0 1.323-1.027 2.406-2.328 2.494v7.756c0 1.38-1.12 2.5-2.5 2.5zm-24.102-3c-7.95 0-14.178-8.565-14.178-19.5s6.228-19.5 14.18-19.5 14.178 8.565 14.178 19.5-6.228 19.5-14.18 19.5zm0-34c-4.975 0-9.178 6.64-9.178 14.5s4.204 14.5 9.18 14.5 9.178-6.64 9.178-14.5-4.204-14.5-9.18-14.5z" fill="#000002"/>
    </symbol>
    <symbol id="left-arrow" viewBox="0 0 386.258 386.258">
      <path d="M96.88 193.13l192.5 193.128V0"/>
    </symbol>
    <symbol id="placeholder" viewBox="0 0 512 512">
      <g fill="#333"><path d="M256 85.333c-46.933 0-85.333 38.4-85.333 85.333S209.067 256 256 256s85.333-38.4 85.333-85.333-38.4-85.334-85.333-85.334zm0 153.6c-37.547 0-68.267-30.72-68.267-68.267S218.453 102.4 256 102.4s68.267 30.72 68.267 68.266c0 37.547-30.72 68.267-68.267 68.267z"/><path d="M256 119.467c-28.16 0-51.2 23.04-51.2 51.2 0 5.12 3.413 8.533 8.533 8.533s8.533-3.413 8.533-8.533c0-18.773 15.36-34.133 34.133-34.133 5.12 0 8.532-3.413 8.532-8.533s-3.412-8.533-8.532-8.533z"/><path d="M256 0C162.133 0 85.333 76.8 85.333 170.667c0 46.08 13.653 74.24 33.28 112.64 2.56 5.973 5.973 11.947 9.387 18.773 47.787 98.133 120.32 204.8 121.173 206.507C250.88 510.293 253.44 512 256 512c2.56 0 5.12-1.707 6.827-4.267.853-.853 73.386-107.52 121.173-205.653 3.413-6.827 5.973-12.8 9.387-18.773 19.627-38.4 33.28-66.56 33.28-112.64C426.667 76.8 349.867 0 256 0zm122.027 274.773c-2.56 6.827-5.973 12.8-9.387 19.627-38.4 78.507-93.013 163.84-112.64 192.853C236.373 458.24 181.76 373.76 143.36 294.4c-3.413-5.973-5.973-12.8-9.387-18.773C115.2 238.08 102.4 212.48 102.4 170.667c0-84.48 69.12-153.6 153.6-153.6s153.6 69.12 153.6 153.6c0 41.813-12.8 67.413-31.573 104.106z"/></g>
    </symbol>
    <symbol id="right-arrow" viewBox="0 0 386.258 386.258">
      <path d="M96.88 0v386.258l192.5-193.13"/>
    </symbol>
    <symbol id="ski" viewBox="0 0 512 512">
      <path d="M102.4 452.267h-8.533V384c5.12 0 8.533-3.413 8.533-8.533s-3.413-8.533-8.533-8.533v-68.267c5.12 0 8.533-3.413 8.533-8.533s-3.413-8.533-8.533-8.533V196.27h8.533c5.12 0 8.533-3.413 8.533-8.533v-59.732-42.667V25.6c0-14.507-11.093-25.6-25.6-25.6s-25.6 11.093-25.6 25.6v162.133c0 5.12 3.413 8.533 8.533 8.533H76.8V281.6c-5.12 0-8.533 3.413-8.533 8.533s3.413 8.533 8.533 8.533v68.267c-5.12 0-8.533 3.413-8.533 8.533S71.68 384 76.8 384v68.267h-8.533c-9.387 0-17.067 7.68-17.067 17.067v8.533c0 9.387 7.68 17.067 17.067 17.067H76.8v8.533c0 5.12 3.413 8.533 8.533 8.533s8.533-3.413 8.533-8.533v-8.533h8.533c9.386 0 17.066-7.68 17.066-17.067v-8.533c0-9.387-7.68-17.067-17.066-17.067zM76.8 179.2v-13.653l17.067-17.067v30.72H76.8zm0-56.32l17.067-17.067v18.773L76.8 141.653V122.88zm8.533-105.813c5.12 0 8.533 3.413 8.533 8.533v56.32L76.8 98.987V25.6c0-5.12 3.413-8.533 8.533-8.533zm17.067 460.8H68.267v-8.533H102.4v8.533zM187.733 247.467c-14.507 0-25.6 11.093-25.6 25.6V332.8c0 9.387 7.68 17.067 17.067 17.067h17.067c9.387 0 17.067-7.68 17.067-17.067v-59.733c0-14.507-11.094-25.6-25.6-25.6zm8.534 85.333H179.2v-59.733c0-5.12 3.413-8.533 8.533-8.533s8.533 3.413 8.533 8.533V332.8zM443.733 452.267H435.2V384c5.12 0 8.533-3.413 8.533-8.533s-3.413-8.533-8.533-8.533v-68.267c5.12 0 8.533-3.413 8.533-8.533s-3.413-8.533-8.533-8.533V196.27h8.533c5.12 0 8.533-3.413 8.533-8.533V25.6c0-14.507-11.093-25.6-25.6-25.6-14.507 0-25.6 11.093-25.6 25.6v162.133c0 5.12 3.413 8.533 8.533 8.533h8.532V281.6c-5.12 0-8.533 3.413-8.533 8.533s3.412 8.533 8.532 8.533v68.267c-5.12 0-8.533 3.413-8.533 8.533S413.01 384 418.13 384v68.266H409.6c-9.387 0-17.067 7.68-17.067 17.067v8.533c0 9.387 7.68 17.067 17.067 17.067h8.533v8.533c0 5.12 3.413 8.533 8.533 8.533s8.533-3.414 8.533-8.534v-8.533h8.532c9.387 0 17.067-7.68 17.067-17.067v-8.533c0-9.386-7.68-17.066-17.067-17.066zm-25.6-273.067v-13.653L435.2 148.48v30.72h-17.067zm0-56.32l17.067-17.067v18.773l-17.067 17.067V122.88zm8.534-105.813c5.12 0 8.533 3.413 8.533 8.533v56.32l-17.067 17.067V25.6c0-5.12 3.414-8.533 8.534-8.533zm17.066 460.8H409.6v-8.533h34.133v8.533z"/><path d="M238.777 47.406c-.04-.55-.08-1.1-.138-1.646-.05-.47-.118-.936-.18-1.404-.056-.407-.108-.815-.172-1.22-.087-.55-.19-1.098-.296-1.646-.058-.3-.115-.6-.18-.9-.127-.606-.27-1.21-.42-1.812-.057-.226-.115-.452-.175-.677-.167-.63-.345-1.256-.537-1.878-.066-.213-.136-.423-.205-.635-.192-.594-.388-1.187-.603-1.773-.186-.51-.39-1.013-.59-1.516-.103-.25-.194-.505-.3-.754-.412-.983-.857-1.95-1.328-2.9-.132-.32-.29-.626-.472-.918C224.635 11.296 207.444 0 187.732 0c-28.16 0-51.2 23.04-51.2 51.2V460.8c0 28.16 23.04 51.2 51.2 51.2 28.16 0 51.2-23.04 51.2-51.2V51.2c0-.922-.027-1.837-.075-2.747-.02-.35-.055-.698-.08-1.047zM153.6 117.76l68.224-68.224c.027.552.042 1.106.042 1.664v22.187L153.6 141.653V117.76zm0 47.787l68.267-68.267v23.893L153.6 189.44v-23.893zm34.133-148.48c11.336 0 21.42 5.606 27.637 14.176l-61.77 61.77V51.2c0-18.773 15.36-34.133 34.133-34.133zm0 477.866c-18.773 0-34.133-15.36-34.133-34.133V214.187l68.267-68.267V460.8c0 18.773-15.36 34.133-34.134 34.133z"/><path d="M187.733 469.333c-5.12 0-8.533-3.413-8.533-8.533v-68.267c0-5.12-3.413-8.533-8.533-8.533-5.12 0-8.533 3.413-8.533 8.533V460.8c0 14.507 11.093 25.6 25.6 25.6 5.12 0 8.533-3.413 8.533-8.533s-3.414-8.534-8.534-8.534zM324.267 247.467c-14.507 0-25.6 11.093-25.6 25.6V332.8c0 9.387 7.68 17.067 17.067 17.067H332.8c9.387 0 17.067-7.68 17.067-17.067v-59.733c0-14.507-11.094-25.6-25.6-25.6zM332.8 332.8h-17.067v-59.733c0-5.12 3.413-8.533 8.533-8.533s8.533 3.413 8.533 8.533V332.8z"/><path d="M375.353 47.967c-.435-6.89-2.246-13.422-5.165-19.32-.132-.322-.29-.628-.472-.92C361.168 11.297 343.978 0 324.266 0c-28.16 0-51.2 23.04-51.2 51.2V460.8c0 28.16 23.04 51.2 51.2 51.2s51.2-23.04 51.2-51.2V51.2c0-.928-.027-1.85-.077-2.767-.01-.156-.027-.31-.037-.466zm-85.22 69.793l68.224-68.224c.027.552.042 1.106.042 1.664v22.187l-68.268 68.267V117.76zm0 47.787L358.4 97.28v23.893l-68.267 68.267v-23.893zm34.134-148.48c11.336 0 21.42 5.606 27.637 14.176l-61.77 61.77V51.2c0-18.773 15.36-34.133 34.133-34.133zm0 477.866c-18.773 0-34.133-15.36-34.133-34.133V214.187L358.4 145.92V460.8c0 18.773-15.36 34.133-34.133 34.133z"/><path d="M324.267 469.333c-5.12 0-8.533-3.413-8.533-8.533v-68.267c0-5.12-3.413-8.533-8.533-8.533s-8.532 3.413-8.532 8.533V460.8c0 14.507 11.093 25.6 25.6 25.6 5.12 0 8.533-3.413 8.533-8.533s-3.413-8.534-8.533-8.534z"/>
    </symbol>
    <symbol id="smartphone" viewBox="0 0 512 512">
      <path d="M256.002 418.133c-15.662 0-28.404 12.74-28.404 28.403s12.742 28.403 28.404 28.403 28.403-12.742 28.403-28.404-12.742-28.403-28.403-28.403zm0 37.136c-4.816 0-8.734-3.92-8.734-8.734s3.918-8.733 8.734-8.733c4.815 0 8.733 3.918 8.733 8.733-.002 4.815-3.92 8.733-8.733 8.733zM302.587 40.447h-50.403c-5.734 0-10.382 4.648-10.382 10.382 0 5.733 4.65 10.38 10.382 10.38h50.403c5.734 0 10.382-4.647 10.382-10.38 0-5.735-4.65-10.383-10.383-10.383z"/><circle cx="220.312" cy="51.085" r="10.899"/><path d="M377.1 0H134.9c-18.078 0-32.785 14.707-32.785 32.784v446.43c0 18.078 14.707 32.785 32.784 32.785h242.2c18.077 0 32.784-14.708 32.784-32.785V32.785C409.884 14.706 395.178 0 377.1 0zm10.93 479.216c0 6.026-4.903 10.928-10.93 10.928H134.9c-6.027 0-10.93-4.902-10.93-10.928V32.784c0-6.026 4.903-10.928 10.93-10.928h242.2c6.026 0 10.928 4.902 10.928 10.928v446.432z"/><path d="M274.418 205.204c-4.27-4.266-11.186-4.266-15.456 0L206.468 257.7c-4.267 4.266-4.267 11.186 0 15.454 2.135 2.134 4.932 3.202 7.728 3.202s5.594-1.068 7.727-3.2l52.494-52.496c4.268-4.268 4.268-11.188 0-15.456zM305.532 235.626c-4.268-4.266-11.186-4.266-15.456 0l-20.912 20.912c-4.266 4.267-4.266 11.187 0 15.456 2.135 2.133 4.932 3.2 7.728 3.2s5.593-1.067 7.727-3.2l20.91-20.912c4.27-4.268 4.27-11.188.002-15.456z"/><path d="M355.366 80.892h-198.73c-5.432 0-9.835 4.403-9.835 9.835v301.275c0 5.432 4.404 9.835 9.836 9.835h198.73c5.432 0 9.835-4.403 9.835-9.835V90.727c0-5.43-4.402-9.835-9.834-9.835zm-9.836 301.275H166.47V100.563h179.06v281.604z"/>
    </symbol>
    <symbol id="store" viewBox="0 0 60 60">
      <path d="M59 13V9h1V3h-3V0H3v3H0v6h1v40H0v11h60V49h-1V13zm-2 0v1.5c0 1.38-1.12 2.5-2.5 2.5S52 15.88 52 14.5V9h5v4zm-7 1.5c0 1.38-1.12 2.5-2.5 2.5S45 15.88 45 14.5V9h5v5.5zm-7 0c0 1.182-.825 2.168-1.93 2.428l-.253.038c-.104.014-.21.034-.317.034-1.38 0-2.5-1.12-2.5-2.5V9h5v5.5zm-23.854 2.46l-.22-.033C17.824 16.667 17 15.68 17 14.5V9h5v5.5c0 1.38-1.12 2.5-2.5 2.5-.108 0-.213-.02-.354-.04zM15 14.5c0 1.38-1.12 2.5-2.5 2.5S10 15.88 10 14.5V9h5v5.5zm21 0c0 1.38-1.12 2.5-2.5 2.5S31 15.88 31 14.5V9h5v5.5zm-7 0c0 1.38-1.12 2.5-2.5 2.5S24 15.88 24 14.5V9h5v5.5zm-5 3.738l.023.013c.21.14.434.26.667.363.042.02.084.036.127.054.237.096.482.175.738.23.038.007.076.012.114.02.27.05.545.083.83.083s.56-.033.832-.084c.038-.007.076-.012.114-.02.255-.055.5-.133.738-.23.043-.016.085-.034.127-.053.234-.103.457-.223.668-.362.032-.02.062-.044.094-.066.215-.15.42-.315.606-.5l.015-.017c.108-.11.212-.222.308-.342.098.12.2.233.31.342.004.005.01.01.014.017.185.185.39.35.606.5.03.022.06.045.094.067.21.14.434.26.667.363.043.02.085.036.128.054.237.096.482.175.738.23.038.007.076.012.114.02.27.05.545.083.83.083s.56-.033.832-.084c.038-.007.076-.012.114-.02.255-.055.5-.133.738-.23.043-.016.085-.034.127-.053.234-.103.457-.223.668-.362.007-.004.016-.007.023-.012V33H24V18.238zM5 2h50v1H5V2zM2 5h56v2H2V5zm6 4v5.5C8 15.88 6.88 17 5.5 17S3 15.88 3 14.5V9h5zm-5 9.238c.716.48 1.575.762 2.5.762 1.42 0 2.675-.675 3.5-1.706.825 1.03 2.08 1.706 3.5 1.706s2.675-.675 3.5-1.706c.518.648 1.204 1.146 2 1.43V49H3V18.238zM14 58c.553 0 1-.447 1-1s-.447-1-1-1h-1c-.553 0-1 .447-1 1s.447 1 1 1h-3c.553 0 1-.447 1-1s-.447-1-1-1H9c-.553 0-1 .447-1 1s.447 1 1 1H6c.553 0 1-.447 1-1s-.447-1-1-1H5c-.553 0-1 .447-1 1s.447 1 1 1H2c.553 0 1-.447 1-1s-.447-1-1-1v-1h1c.553 0 1-.447 1-1s-.447-1-1-1H2v-2h1c0 .553.447 1 1 1h1c.553 0 1-.447 1-1h1c0 .553.447 1 1 1h1c.553 0 1-.447 1-1h1c0 .553.447 1 1 1h1c.553 0 1-.447 1-1h1c0 .553.447 1 1 1h1c.553 0 1-.447 1-1v2c-.553 0-1 .447-1 1s.447 1 1 1v1h-1c-.553 0-1 .447-1 1s.447 1 1 1h-3zm26 0H20V18.973c.07-.008.135-.033.205-.044.15-.025.293-.057.438-.095.142-.038.28-.08.418-.13.14-.052.274-.11.407-.176.13-.064.254-.13.375-.205.05-.032.11-.053.16-.087V35h16V18.238c.05.034.107.055.158.087.122.075.247.14.375.204.133.064.266.123.406.175.137.05.276.092.42.13.143.038.287.07.437.094.07.01.134.035.205.043V58zm14 0c.553 0 1-.447 1-1s-.447-1-1-1h-1c-.553 0-1 .447-1 1s.447 1 1 1h-3c.553 0 1-.447 1-1s-.447-1-1-1h-1c-.553 0-1 .447-1 1s.447 1 1 1h-3c.553 0 1-.447 1-1s-.447-1-1-1h-1c-.553 0-1 .447-1 1s.447 1 1 1h-3c.553 0 1-.447 1-1s-.447-1-1-1v-1h1c.553 0 1-.447 1-1s-.447-1-1-1h-1v-2h1c0 .553.447 1 1 1h1c.553 0 1-.447 1-1h1c0 .553.447 1 1 1h1c.553 0 1-.447 1-1h1c0 .553.447 1 1 1h1c.553 0 1-.447 1-1h1c0 .553.447 1 1 1h1c.553 0 1-.447 1-1v2c-.553 0-1 .447-1 1s.447 1 1 1v1h-1c-.553 0-1 .447-1 1s.447 1 1 1h-3zm-12-9V18.724c.796-.284 1.482-.782 2-1.43.825 1.03 2.08 1.706 3.5 1.706s2.675-.675 3.5-1.706c.825 1.03 2.08 1.706 3.5 1.706.925 0 1.784-.282 2.5-.762V49H42z"/><path d="M22 56h16V38H22v18zm2-16h12v14H24V40zM7 53H6c-.553 0-1 .447-1 1s.447 1 1 1h1c.553 0 1-.447 1-1s-.447-1-1-1zM15 53h-1c-.553 0-1 .447-1 1s.447 1 1 1h1c.553 0 1-.447 1-1s-.447-1-1-1zM11 53h-1c-.553 0-1 .447-1 1s.447 1 1 1h1c.553 0 1-.447 1-1s-.447-1-1-1zM47 53h-1c-.553 0-1 .447-1 1s.447 1 1 1h1c.553 0 1-.447 1-1s-.447-1-1-1zM55 53h-1c-.553 0-1 .447-1 1s.447 1 1 1h1c.553 0 1-.447 1-1s-.447-1-1-1zM51 53h-1c-.553 0-1 .447-1 1s.447 1 1 1h1c.553 0 1-.447 1-1s-.447-1-1-1zM5 27c.256 0 .512-.098.707-.293l4-4c.39-.39.39-1.023 0-1.414s-1.023-.39-1.414 0l-4 4c-.39.39-.39 1.023 0 1.414.195.195.45.293.707.293zM5 32c.256 0 .512-.098.707-.293l2-2c.39-.39.39-1.023 0-1.414s-1.023-.39-1.414 0l-2 2c-.39.39-.39 1.023 0 1.414.195.195.45.293.707.293zM8.29 26.29c-.18.19-.29.45-.29.71 0 .27.11.52.29.71.19.18.45.29.71.29.27 0 .52-.11.71-.29.18-.19.29-.44.29-.71 0-.26-.11-.52-.29-.71-.37-.37-1.04-.37-1.42 0zM10.293 25.707c.195.195.45.293.707.293s.512-.098.707-.293l3-3c.39-.39.39-1.023 0-1.414s-1.023-.39-1.414 0l-3 3c-.39.39-.39 1.023 0 1.414zM13.293 26.293l-9 9c-.39.39-.39 1.023 0 1.414.195.195.45.293.707.293s.512-.098.707-.293l9-9c.39-.39.39-1.023 0-1.414s-1.023-.39-1.414 0zM16.71 24.29c-.37-.37-1.06-.37-1.42 0-.18.19-.29.44-.29.71 0 .27.11.52.29.71.19.18.44.29.71.29.27 0 .52-.11.71-.29.18-.19.29-.44.29-.71 0-.27-.11-.52-.29-.71zM44 27c.256 0 .512-.098.707-.293l4-4c.39-.39.39-1.023 0-1.414s-1.023-.39-1.414 0l-4 4c-.39.39-.39 1.023 0 1.414.195.195.45.293.707.293zM44 32c.256 0 .512-.098.707-.293l2-2c.39-.39.39-1.023 0-1.414s-1.023-.39-1.414 0l-2 2c-.39.39-.39 1.023 0 1.414.195.195.45.293.707.293zM47.29 26.29c-.18.19-.29.45-.29.71s.11.52.29.71c.19.18.44.29.71.29.26 0 .52-.11.71-.29.18-.19.29-.45.29-.71s-.11-.52-.29-.71c-.38-.37-1.05-.37-1.42 0zM49.293 25.707c.195.195.45.293.707.293s.512-.098.707-.293l3-3c.39-.39.39-1.023 0-1.414s-1.023-.39-1.414 0l-3 3c-.39.39-.39 1.023 0 1.414zM52.293 26.293l-9 9c-.39.39-.39 1.023 0 1.414.195.195.45.293.707.293s.512-.098.707-.293l9-9c.39-.39.39-1.023 0-1.414s-1.023-.39-1.414 0zM55.71 24.29c-.37-.37-1.05-.37-1.42 0-.18.19-.29.44-.29.71 0 .27.11.52.29.71.19.18.45.29.71.29s.52-.11.71-.29c.18-.19.29-.45.29-.71s-.11-.52-.29-.71z"/>
    </symbol>
    <symbol id="tag" viewBox="0 0 482.4 482.4">
      <path d="M458.6 23.786c-14.5-14.5-34.5-22.9-56.3-23.7-20.7-.8-41.9 5-61.1 16.8-8.5 5.2-11.2 16.3-6 24.7 5.2 8.5 16.3 11.2 24.7 6 26.1-16 56.2-15.3 73.2 1.7 10 10 14.6 24.5 12.9 40.8-1.8 17.7-10.5 35.1-24.5 49.1s-31.5 22.7-49.1 24.5c-16.3 1.6-30.8-3-40.8-12.9-6.5-6.5-15.1-10-24.2-10-9.2 0-17.8 3.6-24.3 10-6.5 6.5-10 15.1-10 24.3s3.6 17.8 10.1 24.3 15.1 10 24.2 10c9.2 0 17.8-3.6 24.3-10 1.4-1.4 2.7-2.9 3.8-4.5 9.5 3.4 19.7 5.2 30.5 5.2 3.3 0 6.7-.2 10.1-.5.3 0 .6-.1.9-.1l3.1 44.9c.7 10.2-3.1 20.2-10.3 27.5l-167.7 167.5c-9.4 9.4-24.8 9.4-34.2 0L43 314.486c-4.6-4.6-7.1-10.7-7.1-17.1 0-6.5 2.5-12.5 7.1-17.1l167.6-167.6c7.2-7.2 17.2-11 27.4-10.3l148.9 9.9c9.9.7 18.5-6.8 19.2-16.8.7-9.9-6.8-18.5-16.8-19.2l-148.9-9.9c-20.5-1.4-40.7 6.2-55.2 20.8l-167.6 167.6c-11.4 11.4-17.6 26.5-17.6 42.6s6.3 31.2 17.6 42.6l124.8 124.8c11.7 11.7 27.2 17.6 42.6 17.6 15.4 0 30.8-5.9 42.6-17.6l167.6-167.6c14.6-14.6 22.2-34.8 20.8-55.4l-3.6-52.6c12.6-6 24.3-14.3 34.7-24.6 19.8-19.8 32.2-45 34.8-70.9 2.7-27.3-5.6-52.1-23.3-69.9z" fill="#333"/>
    </symbol>
    <symbol id="user" viewBox="0 0 512 512">
      <path d="M374.45 332.463c-.407-.044-59.344 1.695-68.107-61.463 9.737-6.794 18.71-15.614 26.617-26.316 15.38-20.82 25.29-46.938 28.82-75.19 1.213-1.096 2.217-2.46 2.893-4.07 6.387-15.215 9.626-31.46 9.626-48.29C374.3 52.548 325.577 0 265.687 0c-15.663 0-30.86 3.608-45.21 10.733-5.476.418-10.84 1.38-15.986 2.867-24.597 7.107-44.613 25.344-56.362 51.354-11.406 25.254-13.654 54.983-6.328 83.712 1.548 6.07 3.516 12.033 5.85 17.73.632 1.542 1.574 2.857 2.705 3.94 5.718 44.094 26.7 80.63 55.307 100.576-8.79 63.265-67.706 61.51-68.112 61.553-42.382 1.438-76.425 36.34-76.425 79.067v88.94c0 6.368 5.16 11.53 11.528 11.53H439.346c6.366 0 11.53-5.162 11.53-11.53v-88.94c-.002-42.728-34.042-77.632-76.426-79.07zM210.893 35.75c4.207-1.215 8.65-1.936 13.206-2.14 1.69-.077 3.343-.524 4.842-1.312 11.67-6.132 24.035-9.24 36.747-9.24 47.173 0 85.553 42.202 85.553 94.077 0 1.557-.044 3.106-.112 4.65-9.15-9.293-21.862-15.068-35.9-15.068h-78.572c-4.675 0-9.112-1.468-12.833-4.246-3.177-2.37-5.633-5.557-7.1-9.215-2.272-5.658-7.874-9.197-13.972-8.814-6.12.39-11.27 4.64-12.816 10.58-4.553 17.496-13.632 33.612-26.088 46.68-11.59-47.698 9.326-95.052 47.043-105.95zm-10.03 199.39c-15-18.326-24.825-43.073-27.94-70.166 14.548-12.965 26.048-29.1 33.535-46.995 1.136 1.047 2.33 2.038 3.575 2.97 7.736 5.772 16.942 8.825 26.626 8.825h78.57c11.117 0 20.7 6.668 24.975 16.21 0 .083-.013.16-.013.243 0 65.078-37.76 118.023-84.174 118.023-20.2.002-39.79-10.337-55.155-29.11zm26.49 47.093c9.138 3.307 18.75 5.076 28.665 5.076 9.835 0 19.444-1.713 28.643-5.016 4.222 21.99 16.45 41.158 33.528 54.353l-60.535 86.208c-.395.563-.944.848-1.632.848-.686 0-1.235-.286-1.63-.847l-60.55-86.228c17.08-13.21 29.304-32.39 33.512-54.395zm200.464 206.71H84.183V411.53c0-30.922 25.157-56.08 56.08-56.08.42 0 18.97-.45 33.628-7.11l61.63 87.765c4.684 6.672 12.348 10.655 20.5 10.655s15.817-3.983 20.5-10.655l61.62-87.752c16.716 7.1 33.18 7.1 33.6 7.1 30.92 0 56.077 25.156 56.077 56.078v77.413z"/>
    </symbol></svg>